<svg version="1.1" id="Layer_1" xmlns="http://www.w3.org/2000/svg" xmlns:xlink="http://www.w3.org/1999/xlink" x="0px" y="0px"
	 width="100%" viewBox="0 0 200 200" enable-background="new 0 0 200 200" xml:space="preserve">
<path fill="#99EC2C" opacity="1.000000" stroke="none" 
	d="
M142.000000,201.000000 
	C94.666672,201.000000 47.833340,201.000000 1.000006,201.000000 
	C1.000004,134.333344 1.000004,67.666679 1.000002,1.000015 
	C67.666656,1.000010 134.333313,1.000010 200.999969,1.000005 
	C200.999985,67.666649 200.999985,134.333298 201.000000,200.999969 
	C181.500000,201.000000 162.000000,201.000000 142.000000,201.000000 
M86.827682,82.058144 
	C82.826874,81.593994 81.104782,83.126343 81.211342,87.387886 
	C81.444275,96.702919 81.405182,106.030151 81.224045,115.347488 
	C81.150421,119.134148 82.340370,120.832336 86.333534,120.763947 
	C95.818054,120.601494 105.308899,120.608009 114.793732,120.760872 
	C118.752274,120.824677 119.992188,119.184616 119.909492,115.361946 
	C119.711555,106.211823 119.637573,97.047836 119.931114,87.902847 
	C120.084053,83.138184 118.146667,81.862175 113.727829,81.986542 
	C105.079605,82.229950 96.419693,82.057961 86.827682,82.058144 
M64.495491,158.998703 
	C68.659157,158.998291 72.827332,158.879547 76.984955,159.037842 
	C79.903755,159.148972 81.324913,158.143814 81.307487,155.085403 
	C81.249619,144.926453 81.261147,134.766830 81.308456,124.607750 
	C81.320984,121.916809 80.241127,120.666534 77.452469,120.683998 
	C67.293564,120.747650 57.133465,120.765648 46.975025,120.670837 
	C43.941944,120.642532 42.866722,121.893600 42.895523,124.853638 
	C42.992729,134.845474 43.004333,144.839630 42.892849,154.831177 
	C42.855083,158.216324 44.445583,159.117447 47.510387,159.036774 
	C52.836174,158.896591 58.168327,158.998367 64.495491,158.998703 
M148.442963,120.700966 
	C140.288223,120.702621 132.132919,120.759827 123.979050,120.676208 
	C121.068100,120.646355 119.762878,121.678421 119.797440,124.753357 
	C119.909668,134.737488 119.917465,144.724640 119.794792,154.708527 
	C119.754745,157.967712 121.020325,159.089890 124.225777,159.045670 
	C133.876495,158.912491 143.532471,158.878311 153.181610,159.059753 
	C156.835968,159.128479 158.216446,157.929031 158.133865,154.185913 
	C157.935638,145.203430 158.074219,136.213608 158.068726,127.226753 
	C158.064743,120.720505 158.058914,120.720345 151.418961,120.701256 
	C150.753265,120.699341 150.087570,120.700966 148.442963,120.700966 
M81.298958,63.499298 
	C81.296982,58.339897 81.231621,53.179436 81.317863,48.021511 
	C81.366158,45.133526 80.307289,43.772476 77.237137,43.803066 
	C67.252182,43.902546 57.264709,43.914612 47.280144,43.796589 
	C44.041668,43.758305 42.853310,45.020584 42.890488,48.221397 
	C43.004513,58.039597 43.015026,67.861084 42.883930,77.678864 
	C42.841068,80.888985 43.981945,82.148506 47.232471,82.109627 
	C57.217007,81.990189 67.205070,81.979614 77.189125,82.117867 
	C80.291122,82.160835 81.346443,80.851219 81.304893,77.978951 
	C81.239891,73.486290 81.294846,68.991898 81.298958,63.499298 
M120.968285,44.284695 
	C120.610596,45.000904 119.946480,45.714851 119.941170,46.433666 
	C119.861229,57.255890 119.756851,68.081512 120.025421,78.897217 
	C120.052406,79.983871 122.439217,81.891693 123.769371,81.926018 
	C133.753616,82.183723 143.748840,81.975517 153.737686,82.118614 
	C157.007339,82.165459 158.150558,80.939926 158.111572,77.734459 
	C157.992081,67.911530 157.986877,58.085155 158.115662,48.262459 
	C158.157135,45.100555 157.137115,43.743080 153.826416,43.794518 
	C143.173630,43.960033 132.517776,43.928555 120.968285,44.284695 
z"/>
<path fill="#040601" opacity="1.000000" stroke="none" 
	d="
M87.296150,82.058029 
	C96.419693,82.057961 105.079605,82.229950 113.727829,81.986542 
	C118.146667,81.862175 120.084053,83.138184 119.931114,87.902847 
	C119.637573,97.047836 119.711555,106.211823 119.909492,115.361946 
	C119.992188,119.184616 118.752274,120.824677 114.793732,120.760872 
	C105.308899,120.608009 95.818054,120.601494 86.333534,120.763947 
	C82.340370,120.832336 81.150421,119.134148 81.224045,115.347488 
	C81.405182,106.030151 81.444275,96.702919 81.211342,87.387886 
	C81.104782,83.126343 82.826874,81.593994 87.296150,82.058029 
z"/>
<path fill="#000000" opacity="1.000000" stroke="none" 
	d="
M63.996651,158.998703 
	C58.168327,158.998367 52.836174,158.896591 47.510387,159.036774 
	C44.445583,159.117447 42.855083,158.216324 42.892849,154.831177 
	C43.004333,144.839630 42.992729,134.845474 42.895523,124.853638 
	C42.866722,121.893600 43.941944,120.642532 46.975025,120.670837 
	C57.133465,120.765648 67.293564,120.747650 77.452469,120.683998 
	C80.241127,120.666534 81.320984,121.916809 81.308456,124.607750 
	C81.261147,134.766830 81.249619,144.926453 81.307487,155.085403 
	C81.324913,158.143814 79.903755,159.148972 76.984955,159.037842 
	C72.827332,158.879547 68.659157,158.998291 63.996651,158.998703 
z"/>
<path fill="#000000" opacity="1.000000" stroke="none" 
	d="
M148.932419,120.700958 
	C150.087570,120.700966 150.753265,120.699341 151.418961,120.701256 
	C158.058914,120.720345 158.064743,120.720505 158.068726,127.226753 
	C158.074219,136.213608 157.935638,145.203430 158.133865,154.185913 
	C158.216446,157.929031 156.835968,159.128479 153.181610,159.059753 
	C143.532471,158.878311 133.876495,158.912491 124.225777,159.045670 
	C121.020325,159.089890 119.754745,157.967712 119.794792,154.708527 
	C119.917465,144.724640 119.909668,134.737488 119.797440,124.753357 
	C119.762878,121.678421 121.068100,120.646355 123.979050,120.676208 
	C132.132919,120.759827 140.288223,120.702621 148.932419,120.700958 
z"/>
<path fill="#000000" opacity="1.000000" stroke="none" 
	d="
M81.298973,63.998768 
	C81.294846,68.991898 81.239891,73.486290 81.304893,77.978951 
	C81.346443,80.851219 80.291122,82.160835 77.189125,82.117867 
	C67.205070,81.979614 57.217007,81.990189 47.232471,82.109627 
	C43.981945,82.148506 42.841068,80.888985 42.883930,77.678864 
	C43.015026,67.861084 43.004513,58.039597 42.890488,48.221397 
	C42.853310,45.020584 44.041668,43.758305 47.280144,43.796589 
	C57.264709,43.914612 67.252182,43.902546 77.237137,43.803066 
	C80.307289,43.772476 81.366158,45.133526 81.317863,48.021511 
	C81.231621,53.179436 81.296982,58.339897 81.298973,63.998768 
z"/>
<path fill="#000000" opacity="1.000000" stroke="none" 
	d="
M121.415695,44.128868 
	C132.517776,43.928555 143.173630,43.960033 153.826416,43.794518 
	C157.137115,43.743080 158.157135,45.100555 158.115662,48.262459 
	C157.986877,58.085155 157.992081,67.911530 158.111572,77.734459 
	C158.150558,80.939926 157.007339,82.165459 153.737686,82.118614 
	C143.748840,81.975517 133.753616,82.183723 123.769371,81.926018 
	C122.439217,81.891693 120.052406,79.983871 120.025421,78.897217 
	C119.756851,68.081512 119.861229,57.255890 119.941170,46.433666 
	C119.946480,45.714851 120.610596,45.000904 121.415695,44.128868 
z"/>
</svg>